#!OML:ASF F:\VICON\USERDATA\INSTALL\rory3\rory3.ASF
:FULLY-SPECIFIED
:DEGREES
971
root -4.54846 17.858 -0.159244 5.79874 31.371 0.48258
lowerback 3.87225 -4.02606 -2.36707
upperback 2.22616 -5.42309 1.45789
thorax 0.48682 -2.74364 2.98378
lowerneck -19.3226 -5.24425 -12.9404
upperneck 35.1048 -3.90002 2.99199
head 16.2009 -2.88598 2.7981
rclavicle -1.55301e-014 -1.49089e-015
rhumerus 32.7491 -2.30033 -42.8228
rradius 61.394
rwrist -37.6993
rhand -9.35735 -6.59454
rfingers 7.12502
rthumb 16.6024 -35.9044
lclavicle -1.55301e-014 -1.49089e-015
lhumerus 45.2066 -12.9297 56.8283
lradius 49.4579
lwrist 46.3358
lhand -4.50946 41.0212
lfingers 7.12502
lthumb 21.2647 69.8746
rfemur -22.9418 2.78152 21.9385
rtibia 33.3291
rfoot -9.84452 1.51892
rtoes 18.662
lfemur -6.39448 7.00564 -13.054
ltibia 42.1398
lfoot -2.11755 14.9647
ltoes -25.4001
972
root -4.55561 17.8604 -0.141729 5.83025 31.3908 0.410669
lowerback 3.81846 -4.0408 -2.21427
upperback 2.22401 -5.4369 1.49085
thorax 0.504235 -2.74934 2.92925
lowerneck -19.0454 -5.17258 -13.082
upperneck 35.0374 -3.7931 3.02536
head 16.0963 -2.85461 2.86027
rclavicle -4.16702e-014 -8.44835e-015
rhumerus 33.467 -3.33949 -44.1479
rradius 61.048
rwrist -38.6025
rhand -10.9963 -6.38053
rfingers 7.12502
rthumb 15.0241 -35.8154
lclavicle -4.16702e-014 -8.44835e-015
lhumerus 45.6085 -12.4643 57.5937
lradius 49.1068
lwrist 46.9142
lhand -6.30399 41.5629
lfingers 7.12502
lthumb 19.5401 70.601
rfemur -22.9513 2.71291 22.0701
rtibia 33.2666
rfoot -9.81617 1.57221
rtoes 18.6865
lfemur -6.62431 6.98616 -12.9563
ltibia 42.3823
lfoot -1.7208 15.0422
ltoes -25.5059
973
root -4.5607 17.8645 -0.124536 5.87865 31.4101 0.414914
lowerback 3.8444 -4.07352 -2.09625
upperback 2.22708 -5.4768 1.5
thorax 0.485273 -2.76773 2.87633
lowerneck -18.9757 -5.09717 -13.0438
upperneck 35.083 -3.62706 2.83146
head 16.0805 -2.80927 2.80299
rclavicle 4.86774e-014 2.42517e-014
rhumerus 34.1271 -4.41752 -45.7275
rradius 61.0781
rwrist -39.6229
rhand -11.412 -5.79046
rfingers 7.12502
rthumb 14.6236 -35.2549
lclavicle 4.86774e-014 2.42517e-014
lhumerus 45.8593 -11.8942 58.4894
lradius 49.0505
lwrist 47.7964
lhand -7.56412 42.0713
lfingers 7.12502
lthumb 18.3282 71.2279
rfemur -22.9269 2.71393 22.1178
rtibia 33.2087
rfoot -9.83668 1.55446
rtoes 18.576
lfemur -6.80562 6.86758 -12.9459
ltibia 42.5942
lfoot -1.41714 15.1412
ltoes -25.3804
974
root -4.56391 17.8688 -0.1079 6.04419 31.3883 0.555691
lowerback 3.83667 -4.06751 -2.12869
upperback 2.21943 -5.46971 1.51636
thorax 0.485982 -2.7646 2.91053
lowerneck -18.8739 -5.04805 -12.9924
upperneck 35.1093 -3.48984 2.58439
head 16.0503 -2.78066 2.71433
rclavicle 5.19076e-014 -2.15681e-014
rhumerus 34.5436 -5.4117 -47.1126
rradius 61.5912
rwrist -40.7348
rhand -11.2915 -5.21481
rfingers 7.12502
rthumb 14.7397 -34.6708
lclavicle 5.19076e-014 -2.15681e-014
lhumerus 46.0348 -11.2806 59.6477
lradius 49.2763
lwrist 48.8034
lhand -8.19056 41.8007
lfingers 7.12502
lthumb 17.7255 71.0128
rfemur -22.9658 2.67765 22.0255
rtibia 33.1596
rfoot -9.81766 1.59854
rtoes 18.7174
lfemur -7.0267 6.74152 -13.0871
ltibia 42.7695
lfoot -1.23777 15.288
ltoes -24.7584
975
root -4.56752 17.8736 -0.0899345 6.25763 31.3583 0.726855
lowerback 3.89287 -4.01227 -2.15708
upperback 2.11894 -5.39833 1.50202
thorax 0.347773 -2.72605 2.91934
lowerneck -18.6045 -5.03894 -13.1923
upperneck 35.1422 -3.50412 2.74793
head 16.0152 -2.79146 2.82119
rclavicle 4.20181e-014 -1.31198e-014
rhumerus 34.5137 -6.20598 -48.1468
rradius 62.6223
rwrist -41.9278
rhand -11.3656 -4.31306
rfingers 7.12502
rthumb 14.6683 -33.7742
lclavicle 4.20181e-014 -1.31198e-014
lhumerus 46.0207 -10.8519 60.8705
lradius 49.8762
lwrist 50.1197
lhand -8.82309 40.89
lfingers 7.12502
lthumb 17.1167 70.1561
rfemur -23.0355 2.60907 21.9103
rtibia 33.1189
rfoot -9.779 1.66424
rtoes 18.7864
lfemur -7.25493 6.66283 -13.2525
ltibia 42.8981
lfoot -0.983927 15.3563
ltoes -24.4096
976
root -4.57142 17.8785 -0.0738615 6.4039 31.3766 0.768407
lowerback 4.09712 -3.96931 -1.98196
upperback 1.92161 -5.33853 1.45525
thorax 0.00627043 -2.68726 2.79918
lowerneck -18.2939 -5.01944 -13.2945
upperneck 35.2408 -3.51491 2.83273
head 15.9976 -2.80132 2.87932
rclavicle 2.28602e-014 -1.03368e-014
rhumerus 34.1817 -6.87257 -49.0172
rradius 64.1392
rwrist -43.5756
rhand -11.0719 -3.70534
rfingers 7.12502
rthumb 14.9512 -33.1457
lclavicle 2.28602e-014 -1.03368e-014
lhumerus 45.7735 -10.5703 61.9609
lradius 50.708
lwrist 51.854
lhand -9.32499 39.8372
lfingers 7.12502
lthumb 16.6336 69.1445
rfemur -23.0955 2.55648 21.9117
rtibia 33.0641
rfoot -9.76965 1.71035
rtoes 18.8405
lfemur -7.48786 6.60292 -13.2893
ltibia 43.0065
lfoot -0.62553 15.4345
ltoes -24.5868
977
root -4.57513 17.8831 -0.059437 6.5184 31.4324 0.80376
lowerback 4.19377 -3.95719 -1.82392
upperback 1.852 -5.31802 1.3892
thorax -0.141361 -2.67265 2.65491
lowerneck -18.0537 -4.98311 -13.1616
upperneck 35.2525 -3.49226 2.69621
head 15.9365 -2.79349 2.80443
rclavicle 4.31363e-014 -3.57812e-015
rhumerus 33.9036 -7.5913 -49.9429
rradius 65.9183
rwrist -45.4545
rhand -10.3734 -3.27886
rfingers 7.12502
rthumb 15.624 -32.6679
lclavicle 4.31363e-014 -3.57812e-015
lhumerus 45.5662 -10.1805 62.9875
lradius 51.8234
lwrist 53.6016
lhand -9.10079 38.9023
lfingers 7.12502
lthumb 16.8494 68.1913
rfemur -23.1094 2.57621 21.9127
rtibia 32.9722
rfoot -9.82315 1.63478
rtoes 18.6284
lfemur -7.68025 6.50076 -13.3116
ltibia 43.0726
lfoot -0.160331 15.441
ltoes -24.806
978
root -4.57896 17.8904 -0.0434485 6.66641 31.5063 0.869439
lowerback 4.10407 -3.98332 -1.79087
upperback 1.9172 -5.35032 1.37363
thorax -0.027089 -2.69052 2.61153
lowerneck -17.8863 -4.92736 -13.012
upperneck 35.125 -3.42839 2.53475
head 15.8182 -2.76499 2.72066
rclavicle 4.75344e-014 -3.97569e-015
rhumerus 33.8023 -8.18664 -50.7625
rradius 67.7143
rwrist -47.0171
rhand -9.69699 -2.29647
rfingers 7.12502
rthumb 16.2754 -31.6334
lclavicle 4.75344e-014 -3.97569e-015
lhumerus 45.378 -9.58692 64.1002
lradius 53.2195
lwrist 55.1366
lhand -8.20615 38.0381
lfingers 7.12502
lthumb 17.7105 67.2516
rfemur -23.1124 2.61701 21.8861
rtibia 32.8255
rfoot -9.84987 1.51235
rtoes 18.5653
lfemur -7.86612 6.34614 -13.3497
ltibia 43.1202
lfoot 0.226813 15.4083
ltoes -24.8871
979
root -4.58154 17.9006 -0.0248197 6.8025 31.5044 0.95183
lowerback 4.10718 -3.96986 -1.78303
upperback 1.93314 -5.33192 1.37517
thorax -0.0140892 -2.68152 2.60771
lowerneck -17.8598 -4.91334 -13.069
upperneck 35.1977 -3.37501 2.50384
head 15.845 -2.75649 2.72876
rclavicle 1.00262e-013 -2.3059e-014
rhumerus 33.4515 -8.59893 -51.2432
rradius 69.6432
rwrist -48.5116
rhand -8.63822 -0.680741
rfingers 7.12502
rthumb 17.2947 -29.9312
lclavicle 1.00262e-013 -2.3059e-014
lhumerus 45.0052 -9.10483 65.2126
lradius 54.7983
lwrist 56.541
lhand -7.20454 36.9294
lfingers 7.12502
lthumb 18.6741 66.053
rfemur -23.0684 2.68298 21.8374
rtibia 32.6484
rfoot -9.85321 1.4428
rtoes 18.6488
lfemur -7.97299 6.22539 -13.4112
ltibia 43.1374
lfoot 0.485063 15.4851
ltoes -24.6166
980
root -4.58722 17.9099 -0.00371449 6.87821 31.4969 0.96178
lowerback 4.13823 -3.91728 -1.73736
upperback 1.94944 -5.26024 1.38112
thorax -0.0223952 -2.64529 2.58808
lowerneck -17.8631 -4.94931 -13.0856
upperneck 35.3263 -3.39992 2.45973
head 15.9133 -2.77865 2.70978
rclavicle 6.30396e-014 -5.96354e-016
rhumerus 32.9276 -8.96889 -51.5611
rradius 71.7012
rwrist -50.0237
rhand -7.1135 1.58475
rfingers 7.12502
rthumb 18.7617 -27.5305
lclavicle 6.30396e-014 -5.96354e-016
lhumerus 44.5706 -8.78495 66.2852
lradius 56.4698
lwrist 57.8234
lhand -5.99458 35.265
lfingers 7.12502
lthumb 19.8376 64.2726
rfemur -22.9822 2.81555 21.8613
rtibia 32.458
rfoot -9.85297 1.33709
rtoes 18.9187
lfemur -8.05393 6.13446 -13.3813
ltibia 43.1422
lfoot 0.76754 15.5309
ltoes -24.5243
981
root -4.59407 17.9167 0.0175437 6.99946 31.533 1.05032
lowerback 4.14999 -3.86476 -1.75637
upperback 1.94988 -5.19118 1.35702
thorax -0.0330344 -2.61057 2.57269
lowerneck -17.5946 -4.97533 -13.0643
upperneck 35.2543 -3.46414 2.39775
head 15.8195 -2.80838 2.66894
rclavicle 2.33572e-014 -4.77083e-015
rhumerus 32.3953 -9.19199 -51.9271
rradius 73.6539
rwrist -51.2413
rhand -5.87954 1.79058
rfingers 7.12502
rthumb 19.9482 -27.2056
lclavicle 2.33572e-014 -4.77083e-015
lhumerus 44.0522 -8.58886 67.2906
lradius 58.1976
lwrist 58.8538
lhand -4.47982 33.4426
lfingers 7.12502
lthumb 21.2931 62.2929
rfemur -22.9 2.9348 21.8113
rtibia 32.2686
rfoot -9.8653 1.24063
rtoes 19.6467
lfemur -8.14504 6.02041 -13.4122
ltibia 43.1359
lfoot 1.0137 15.534
ltoes -24.5752
982
root -4.59919 17.9234 0.0360923 7.22877 31.6112 1.19391
lowerback 4.13166 -3.85723 -1.73001
upperback 1.88965 -5.18073 1.28007
thorax -0.0949623 -2.60341 2.48063
lowerneck -17.3333 -4.96768 -13.104
upperneck 35.2303 -3.47514 2.39164
head 15.749 -2.81825 2.67389
rclavicle 4.69132e-014 -2.36554e-014
rhumerus 31.7637 -9.23549 -52.2025
rradius 75.6006
rwrist -52.3302
rhand -4.00865 2.93452
rfingers 7.12502
rthumb 21.7457 -25.864
lclavicle 4.69132e-014 -2.36554e-014
lhumerus 43.4454 -8.4043 68.1017
lradius 59.9596
lwrist 59.6477
lhand -2.71418 31.8354
lfingers 7.12502
lthumb 22.9882 60.4847
rfemur -22.9084 3.00597 21.7065
rtibia 32.0831
rfoot -9.91463 1.12967
rtoes 20.0047
lfemur -8.33945 5.92635 -13.504
ltibia 43.133
lfoot 1.24546 15.5934
ltoes -24.3684
983
root -4.60373 17.929 0.0513472 7.38561 31.6643 1.26471
lowerback 4.03684 -3.866 -1.81084
upperback 1.92148 -5.19393 1.34065
thorax 0.0042574 -2.61256 2.5787
lowerneck -17.1799 -4.87529 -12.962
upperneck 35.1054 -3.27314 2.03113
head 15.6218 -2.75983 2.53196
rclavicle 1.45113e-014 -8.54774e-015
rhumerus 31.2169 -9.14807 -52.1178
rradius 77.6054
rwrist -53.3744
rhand -1.70131 4.25495
rfingers 7.12502
rthumb 23.9598 -24.27
lclavicle 1.45113e-014 -8.54774e-015
lhumerus 42.8367 -8.05551 68.9769
lradius 61.7958
lwrist 60.1132
lhand -0.593427 30.3259
lfingers 7.12502
lthumb 25.0219 58.7071
rfemur -22.9001 3.06565 21.6755
rtibia 31.9035
rfoot -9.91697 1.01866
rtoes 19.8929
lfemur -8.51306 5.8472 -13.5385
ltibia 43.1335
lfoot 1.63747 15.5786
ltoes -24.6422
